<svg width="9" height="9" viewBox="0 0 9 9" fill="none" xmlns="http://www.w3.org/2000/svg">
<path d="M8.42727 8.11121C8.44802 8.13196 8.46448 8.1566 8.47571 8.18372C8.48694 8.21083 8.49272 8.2399 8.49271 8.26925C8.49271 8.29859 8.48693 8.32766 8.47569 8.35477C8.46446 8.38188 8.448 8.40652 8.42724 8.42727C8.40649 8.44802 8.38185 8.46448 8.35473 8.47571C8.32762 8.48694 8.29856 8.49272 8.26921 8.49271C8.23986 8.49271 8.2108 8.48693 8.18368 8.47569C8.15657 8.46446 8.13193 8.448 8.11118 8.42724L4.24636 4.56244L0.381531 8.42724C0.339623 8.46916 0.28278 8.49271 0.223507 8.49271C0.164235 8.49272 0.107387 8.46918 0.0654717 8.42727C0.023556 8.38536 5.13518e-06 8.32852 8.3968e-10 8.26925C-5.13351e-06 8.20997 0.0235359 8.15313 0.0654444 8.11121L3.93028 4.24636L0.0654444 0.381504C0.0235359 0.339588 -5.13351e-06 0.282741 8.3968e-10 0.223468C2.54311e-06 0.19412 0.00578572 0.165059 0.0170194 0.137945C0.0282531 0.110831 0.0447171 0.0861954 0.0654717 0.0654444C0.0862263 0.0446935 0.110865 0.0282336 0.137981 0.0170047C0.165096 0.00577571 0.194158 -2.54143e-06 0.223507 8.3853e-10C0.28278 5.13518e-06 0.339623 0.023556 0.381531 0.0654717L4.24636 3.93027L8.11118 0.0654717C8.13193 0.0447171 8.15657 0.0282531 8.18368 0.0170194C8.2108 0.00578572 8.23986 2.54311e-06 8.26921 8.3853e-10C8.29856 -2.54143e-06 8.32762 0.00577571 8.35473 0.0170047C8.38185 0.0282336 8.40649 0.0446935 8.42724 0.0654444C8.448 0.0861954 8.46446 0.110831 8.47569 0.137945C8.48693 0.165059 8.49271 0.19412 8.49271 0.223468C8.49272 0.252817 8.48694 0.281879 8.47571 0.308995C8.46448 0.336111 8.44802 0.360749 8.42727 0.381504L4.56243 4.24636L8.42727 8.11121Z" fill="#FAFAFA"/>
</svg>
