<svg width="13" height="13" viewBox="0 0 13 13" fill="none" xmlns="http://www.w3.org/2000/svg">
    <path fill-rule="evenodd" clip-rule="evenodd" d="M3.47569 0C3.74992 0 3.97222 0.222305 3.97222 0.496528V0.993055H8.9375V0.496528C8.9375 0.222305 9.15984 0 9.43402 0C9.70821 0 9.93055 0.222305 9.93055 0.496528V0.993055H11.4201C12.2428 0.993055 12.9097 1.65996 12.9097 2.48264V11.4201C12.9097 12.2428 12.2428 12.9097 11.4201 12.9097H1.48958C0.666906 12.9097 0 12.2428 0 11.4201V2.48264C0 1.65996 0.666906 0.993055 1.48958 0.993055H2.97917V0.496528C2.97917 0.222305 3.20147 0 3.47569 0ZM8.9375 1.98611V2.48264C8.9375 2.75686 9.15984 2.97917 9.43402 2.97917C9.70821 2.97917 9.93055 2.75686 9.93055 2.48264V1.98611H11.4201C11.6943 1.98611 11.9167 2.20842 11.9167 2.48264V3.97222H0.993055V2.48264C0.993055 2.20842 1.21536 1.98611 1.48958 1.98611H2.97917V2.48264C2.97917 2.75686 3.20147 2.97917 3.47569 2.97917C3.74992 2.97917 3.97222 2.75686 3.97222 2.48264V1.98611H8.9375ZM0.993055 4.96528V11.4201C0.993055 11.6943 1.21536 11.9167 1.48958 11.9167H11.4201C11.6943 11.9167 11.9167 11.6943 11.9167 11.4201V4.96528H0.993055ZM5.95833 6.45486C5.95833 6.18064 6.18064 5.95833 6.45486 5.95833C6.72908 5.95833 6.95139 6.18064 6.95139 6.45486C6.95139 6.72908 6.72908 6.95139 6.45486 6.95139C6.18064 6.95139 5.95833 6.72908 5.95833 6.45486ZM8.44097 5.95833C8.16675 5.95833 7.94444 6.18064 7.94444 6.45486C7.94444 6.72908 8.16675 6.95139 8.44097 6.95139C8.71519 6.95139 8.9375 6.72908 8.9375 6.45486C8.9375 6.18064 8.71519 5.95833 8.44097 5.95833ZM9.93055 6.45486C9.93055 6.18064 10.1529 5.95833 10.4271 5.95833C10.7013 5.95833 10.9236 6.18064 10.9236 6.45486C10.9236 6.72908 10.7013 6.95139 10.4271 6.95139C10.1529 6.95139 9.93055 6.72908 9.93055 6.45486ZM10.4271 7.94444C10.1529 7.94444 9.93055 8.16675 9.93055 8.44097C9.93055 8.71519 10.1529 8.9375 10.4271 8.9375C10.7013 8.9375 10.9236 8.71519 10.9236 8.44097C10.9236 8.16675 10.7013 7.94444 10.4271 7.94444ZM7.94444 8.44097C7.94444 8.16675 8.16675 7.94444 8.44097 7.94444C8.71519 7.94444 8.9375 8.16675 8.9375 8.44097C8.9375 8.71519 8.71519 8.9375 8.44097 8.9375C8.16675 8.9375 7.94444 8.71519 7.94444 8.44097ZM6.45486 7.94444C6.18064 7.94444 5.95833 8.16675 5.95833 8.44097C5.95833 8.71519 6.18064 8.9375 6.45486 8.9375C6.72908 8.9375 6.95139 8.71519 6.95139 8.44097C6.95139 8.16675 6.72908 7.94444 6.45486 7.94444ZM3.97222 8.44097C3.97222 8.16675 4.19453 7.94444 4.46875 7.94444C4.74297 7.94444 4.96528 8.16675 4.96528 8.44097C4.96528 8.71519 4.74297 8.9375 4.46875 8.9375C4.19453 8.9375 3.97222 8.71519 3.97222 8.44097ZM2.48264 7.94444C2.20842 7.94444 1.98611 8.16675 1.98611 8.44097C1.98611 8.71519 2.20842 8.9375 2.48264 8.9375C2.75686 8.9375 2.97917 8.71519 2.97917 8.44097C2.97917 8.16675 2.75686 7.94444 2.48264 7.94444ZM1.98611 10.4271C1.98611 10.1529 2.20842 9.93055 2.48264 9.93055C2.75686 9.93055 2.97917 10.1529 2.97917 10.4271C2.97917 10.7013 2.75686 10.9236 2.48264 10.9236C2.20842 10.9236 1.98611 10.7013 1.98611 10.4271ZM4.46875 9.93055C4.19453 9.93055 3.97222 10.1529 3.97222 10.4271C3.97222 10.7013 4.19453 10.9236 4.46875 10.9236C4.74297 10.9236 4.96528 10.7013 4.96528 10.4271C4.96528 10.1529 4.74297 9.93055 4.46875 9.93055ZM5.95833 10.4271C5.95833 10.1529 6.18064 9.93055 6.45486 9.93055C6.72908 9.93055 6.95139 10.1529 6.95139 10.4271C6.95139 10.7013 6.72908 10.9236 6.45486 10.9236C6.18064 10.9236 5.95833 10.7013 5.95833 10.4271ZM8.44097 9.93055C8.16675 9.93055 7.94444 10.1529 7.94444 10.4271C7.94444 10.7013 8.16675 10.9236 8.44097 10.9236C8.71519 10.9236 8.9375 10.7013 8.9375 10.4271C8.9375 10.1529 8.71519 9.93055 8.44097 9.93055Z" fill="#BDBDBD"/>
</svg>
