<svg width="23" height="23" viewBox="0 0 23 23" fill="none" xmlns="http://www.w3.org/2000/svg">
    <path d="M9.03571 0C14.026 0 18.0714 4.04543 18.0714 9.03571C18.0714 11.2352 17.2856 13.251 15.9794 14.8179L22.7594 21.5977C23.0802 21.9185 23.0802 22.4386 22.7594 22.7594C22.4743 23.0446 22.0316 23.0762 21.7115 22.8545L21.5977 22.7594L14.8179 15.9794C13.251 17.2856 11.2352 18.0714 9.03571 18.0714C4.04543 18.0714 0 14.026 0 9.03571C0 4.04543 4.04543 0 9.03571 0ZM9.03571 1.64286C4.95275 1.64286 1.64286 4.95275 1.64286 9.03571C1.64286 13.1187 4.95275 16.4286 9.03571 16.4286C13.1187 16.4286 16.4286 13.1187 16.4286 9.03571C16.4286 4.95275 13.1187 1.64286 9.03571 1.64286Z" fill="#212121"/>
</svg>
