<svg width="574" height="574" viewBox="0 0 574 574" fill="none" xmlns="http://www.w3.org/2000/svg">
    <path d="M454.217 262.853H310.985V119.621C310.985 113.29 308.47 107.218 303.993 102.741C299.516 98.2639 293.444 95.7488 287.113 95.7488C280.781 95.7488 274.709 98.2639 270.233 102.741C265.756 107.218 263.241 113.29 263.241 119.621V262.853H120.008C113.677 262.853 107.605 265.368 103.128 269.845C98.6516 274.322 96.1365 280.394 96.1365 286.725C96.1365 293.056 98.6516 299.128 103.128 303.605C107.605 308.082 113.677 310.597 120.008 310.597H263.241V453.829C263.241 460.16 265.756 466.232 270.233 470.709C274.709 475.186 280.781 477.701 287.113 477.701C293.444 477.701 299.516 475.186 303.993 470.709C308.47 466.232 310.985 460.16 310.985 453.829V310.597H454.217C460.548 310.597 466.62 308.082 471.097 303.605C475.574 299.128 478.089 293.056 478.089 286.725C478.089 280.394 475.574 274.322 471.097 269.845C466.62 265.368 460.548 262.853 454.217 262.853Z" fill="white"/>
</svg>
