<svg width="574" height="574" viewBox="0 0 574 574" fill="none" xmlns="http://www.w3.org/2000/svg">
    <path d="M9.53305 564.198L9.63829 564.303C12.4287 567.114 15.7473 569.345 19.4032 570.869C23.0591 572.394 26.9802 573.18 30.9411 573.183C34.2739 573.181 37.5837 572.631 40.7385 571.557L212.504 513.289L542.109 183.684C562.259 163.532 573.578 136.202 573.577 107.705C573.576 79.2076 562.254 51.8781 542.103 31.7284C521.951 11.5788 494.621 0.259495 466.123 0.260742C437.626 0.26199 410.297 11.5836 390.147 31.7351L60.5415 361.341L2.27931 533.101C0.444052 538.442 0.151111 544.192 1.43408 549.692C2.71704 555.192 5.52398 560.22 9.53305 564.198ZM417.518 59.1038C430.427 46.2937 447.886 39.1208 466.072 39.1557C484.258 39.1906 501.689 46.4306 514.548 59.2902C527.407 72.1498 534.647 89.5811 534.681 107.767C534.716 125.953 527.542 143.412 514.732 156.32L471.389 199.663L374.172 102.447L417.518 59.1038ZM94.3004 382.321L346.804 129.816L444.02 227.032L191.515 479.535L44.3914 529.444L94.3004 382.321Z" fill="white"/>
</svg>
