<svg width="1015" height="1015" viewBox="0 0 1015 1015" fill="none" xmlns="http://www.w3.org/2000/svg">
<path d="M317.129 570.832H570.832V634.257H317.129V570.832Z" fill="white"/>
<path d="M317.129 412.267H697.683V475.693H317.129V412.267Z" fill="white"/>
<path d="M317.129 729.396H475.693V792.822H317.129V729.396Z" fill="white"/>
<path d="M792.822 158.564H697.683V126.852C697.683 110.03 691.001 93.8974 679.106 82.0027C667.212 70.1081 651.079 63.4258 634.257 63.4258H380.555C363.733 63.4258 347.6 70.1081 335.706 82.0027C323.811 93.8974 317.129 110.03 317.129 126.852V158.564H221.99C205.169 158.564 189.036 165.247 177.141 177.141C165.247 189.036 158.564 205.169 158.564 221.99V887.96C158.564 904.782 165.247 920.914 177.141 932.809C189.036 944.704 205.169 951.386 221.99 951.386H792.822C809.643 951.386 825.776 944.704 837.671 932.809C849.565 920.914 856.248 904.782 856.248 887.96V221.99C856.248 205.169 849.565 189.036 837.671 177.141C825.776 165.247 809.643 158.564 792.822 158.564ZM380.555 126.852H634.257V253.703H380.555V126.852ZM792.822 887.96H221.99V221.99H317.129V317.129H697.683V221.99H792.822V887.96Z" fill="white"/>
</svg>
